/vscmnt/brussel_pixiu_data/_data_brussel/112/vsc11236/PredSimResults/SUBJ11opt3D/expIG/worker_05.mot
version=1
nRows=4
nColumns=50
inDegrees=yes
endheader
                time	         pelvis_tilt	         pelvis_list	     pelvis_rotation	           pelvis_tx	           pelvis_ty	           pelvis_tz	       hip_flexion_r	     hip_adduction_r	      hip_rotation_r	        knee_angle_r	       ankle_angle_r	         mtp_angle_r	       hip_flexion_l	     hip_adduction_l	      hip_rotation_l	        knee_angle_l	       ankle_angle_l	         mtp_angle_l	    lumbar_extension	      lumbar_bending	     lumbar_rotation	 ercspn_r/activation	 intobl_r/activation	 extobl_r/activation	    abd_r/activation	    add_r/activation	hamstrings_r/activation	bifemsh_r/activation	glut_max_r/activation	iliopsoas_r/activation	rect_fem_r/activation	  vasti_r/activation	gastroc_r/activation	 soleus_r/activation	tib_ant_r/activation	 ercspn_l/activation	 intobl_l/activation	 extobl_l/activation	    abd_l/activation	    add_l/activation	hamstrings_l/activation	bifemsh_l/activation	glut_max_l/activation	iliopsoas_l/activation	rect_fem_l/activation	  vasti_l/activation	gastroc_l/activation	 soleus_l/activation	tib_ant_l/activation	
          0.00000000	         -2.93912512	         -0.75217007	          5.73767348	          0.00000000	          0.94337464	         -0.00574205	         30.61290779	         -2.09556629	         -3.97713528	        -10.26976905	          1.17430531	          0.25195549	        -13.13894743	         -2.85929138	         -2.84716922	        -12.65421069	         12.46468783	         28.79011854	        -14.34740050	         -2.43994435	         -3.35230048	          0.02312600	          0.21547378	          0.06062174	          0.00999999	          0.18787841	          0.02377276	          0.09513455	          0.07377550	          0.08614895	          0.04049373	          0.01383957	          0.00999999	          0.00999999	          0.39477237	          0.01000003	          0.00999999	          0.00999999	          0.03612024	          0.01238679	          0.01265007	          0.16437138	          0.01883840	          0.05542020	          0.01000007	          0.00999999	          0.12697636	          0.29300994	          0.01238677	
          0.01432069	         -3.07168121	         -0.80712633	          5.74304677	          0.01840464	          0.94131413	         -0.00422435	         30.18798146	         -1.89494592	         -4.14168427	        -11.15793959	          0.67626333	          0.21054214	        -13.65155560	         -3.11596923	         -3.26027629	        -13.46060806	         11.68081871	         30.55744769	        -13.88331963	         -1.93262381	         -3.59629883	          0.01866990	          0.17395461	          0.04894066	          0.04073566	          0.16461245	          0.04598172	          0.07680328	          0.09189271	          0.06954909	          0.03269108	          0.01117286	          0.01238677	          0.01238677	          0.43980679	          0.00999999	          0.00999999	          0.01000000	          0.02916031	          0.01000001	          0.01314828	          0.13269901	          0.01520847	          0.04474140	          0.00999999	          0.00999999	          0.10250956	          0.27205495	          0.00999999	
          0.02864139	         -3.18394765	         -0.86233745	          5.72251395	          0.03707618	          0.93966577	         -0.00262558	         29.76442465	         -1.71562260	         -4.35534054	        -12.09275648	         -0.01792892	          0.20526614	        -13.99465814	         -3.38802679	         -3.67806482	        -14.60072187	         10.71920573	         32.40187817	        -13.40269054	         -1.41885693	         -3.82894739	          0.02389763	          0.14043567	          0.03951039	          0.08454387	          0.20379306	          0.04302485	          0.06200422	          0.09624246	          0.05614783	          0.02639191	          0.02772314	          0.00999999	          0.00999999	          0.51181872	          0.02056563	          0.00999999	          0.00999999	          0.02354147	          0.00999999	          0.01061477	          0.10712953	          0.01227798	          0.03612028	          0.01000000	          0.00999999	          0.08275722	          0.24721046	          0.00999999	
          0.04296208	         -3.27559179	         -0.90927955	          5.67545178	          0.05573341	          0.93862728	         -0.00094810	         29.44953152	         -1.56000639	         -4.62070677	        -13.21978514	         -0.76417717	          0.16090266	        -14.06154890	         -3.67194607	         -4.09940114	        -16.22151139	          9.55270039	         34.31062826	        -12.93932170	         -0.91084421	         -4.04655140	          0.02710731	          0.11337543	          0.03189722	          0.11311573	          0.23188348	          0.04826992	          0.05005677	          0.07879235	          0.04532883	          0.02130651	          0.09531488	          0.00999999	          0.00999999	          0.56001087	          0.05032671	          0.00999999	          0.00999999	          0.01900532	          0.03566572	          0.02501720	          0.08648697	          0.01238675	          0.02916034	          0.00999999	          0.00999999	          0.06681091	          0.21482192	          0.00999999	
